<?xml version="1.0" standalone="no"?><!DOCTYPE svg PUBLIC "-//W3C//DTD SVG 1.1//EN" "http://www.w3.org/Graphics/SVG/1.1/DTD/svg11.dtd"><svg t="1594735572246" class="icon" viewBox="0 0 1024 1024" version="1.1" xmlns="http://www.w3.org/2000/svg" p-id="3219" xmlns:xlink="http://www.w3.org/1999/xlink" width="200" height="200"><defs><style type="text/css"></style></defs><path d="M189.801 548.263l291.612 291.134c35.788 35.814 93.9 35.814 129.685 0L838.225 612.8c35.788-35.816 35.788-93.619 0-129.432L546.255 192.23c-22.323-23.402-26.574-33.686-49.96-33.686H199.722c-23.387 0-42.52 18.793-42.52 42.198v295.744c0.355 23.406 13.817 32.98 32.598 51.776z m616.18 32.27L578.853 807.127c-18.068 17.727-47.126 17.727-64.842 0l-32.245-31.918 291.26-292.196 32.599 32.625c18.072 18.082 18.072 46.807 0.354 64.893zM200.073 222.02c0-11.704 9.57-21.278 21.261-21.278h254.056c11.692 0 28.345 13.121 38.62 23.76l226.772 226.241-291.615 291.49L222.046 515.64c-11.341-11.35-22.323-28.37-22.323-40.072l0.35-253.546zM432.87 434.786c35.789-35.817 35.789-93.616 0-129.433-35.788-35.817-93.896-35.817-129.685 0-35.79 35.817-35.79 93.616 0 129.433 35.789 35.817 93.897 35.817 129.685 0z m-97.441-97.164c18.072-17.73 47.126-17.73 64.842 0 18.072 17.731 18.072 46.808 0 64.894-18.072 17.731-47.126 17.731-64.842 0-17.717-18.086-17.717-46.808 0-64.894z" p-id="3220"></path></svg>