<?xml version="1.0" standalone="no"?><!DOCTYPE svg PUBLIC "-//W3C//DTD SVG 1.1//EN" "http://www.w3.org/Graphics/SVG/1.1/DTD/svg11.dtd"><svg t="1597546221878" class="icon" viewBox="0 0 1024 1024" version="1.1" xmlns="http://www.w3.org/2000/svg" p-id="3070" xmlns:xlink="http://www.w3.org/1999/xlink" width="32" height="32"><defs><style type="text/css"></style></defs><path d="M729.2 214.8S669.5 410 619.9 464.5c-49.6 54.5-212.7 64.8-229.6 110-16.9 45.2-182.8 66.6-176.1 56.7 6.7-9.9 158.1-192 150.7-203.2-7.3-11.2-116.9-171.7-117.6-190.6s19.8-127.5 63.5-123.1c43.7 4.4 199.6 149.2 209.3 110.8 9.8-38.3 101.1-108.5 112.1-115.6 10.9-7.2 121.6 18.6 97 105.3z" fill="#E96D6B" opacity=".25" p-id="3071"></path><path d="M357.3 349c-71 0-128.9-56-128.9-124.8 0-49.9 37.4-111.7 78.5-129.7 23.2-10.1 45.9-6.5 64 10.2 11.1 10.2 20.1 18.5 28.1 25.8 30.5 28 43.2 39.6 81.7 79.9 15.9 16.7 19.8 38.7 10.5 60.3-11.7 27.3-39.8 46.3-55.5 55.3-25.7 14.6-54.3 23-78.4 23z m-25.1-220.1c-2.8 0-5.8 0.8-9.2 2.2-26.5 11.6-54.5 59.4-54.5 93 0 46.8 39.9 84.8 88.9 84.8 35.2 0 86.1-28.3 97.1-54.1 3.5-8.1 1.4-12.6-2.7-16.9-37.6-39.4-49-49.9-79.8-78-8-7.3-17-15.6-28.2-25.9-3.8-3.4-7.5-5.1-11.6-5.1z" fill="#E96D6B" p-id="3072"></path><path d="M629.6 349c-24.1 0-52.6-8.4-78.4-23-15.7-8.9-43.8-28-55.5-55.3-9.2-21.6-5.4-43.6 10.5-60.3 38.5-40.3 51.1-51.9 81.7-79.9 8-7.3 17-15.6 28.1-25.8 18.1-16.7 40.8-20.3 64-10.2 41.1 18 78.5 79.8 78.5 129.7C758.4 293 700.6 349 629.6 349z m25.1-220.1c-4.2 0-7.8 1.7-11.6 5.2-11.2 10.3-20.2 18.6-28.2 25.9-30.7 28.1-42.2 38.6-79.8 78-4.1 4.3-6.2 8.9-2.7 16.9 11 25.8 61.8 54.1 97.1 54.1 49 0 88.9-38 88.9-84.8 0-33.6-28-81.5-54.5-93-3.4-1.6-6.4-2.3-9.2-2.3zM458.7 894.9c-57.9 0-114.2-6-161.5-17.5-71.1-17.2-119-45.3-142.4-83.5-22.3-36.5 5-89.2 27.5-125.7 27.2-44.1 64.9-91.1 98.3-132.5 15.4-19.1 29.9-37.2 40.6-51.6 9.5-12.9 13.8-19.9 15.7-23.6-20.6-37.5-94.5-178.2-97.9-184.6l35.4-18.6c0.9 1.6 86.7 165.1 100.5 189.4 9 15.8-2.4 34.3-15.9 53.3-11.7 16.5-28.2 37-47.3 60.7-32.6 40.5-69.5 86.4-95.4 128.4-35.6 57.9-31 77.9-27.4 83.9 17.4 28.4 58.1 51 117.7 65.5 53.4 12.9 119.5 18.5 186 15.6l1.7 40c-11.9 0.6-23.8 0.8-35.6 0.8z" fill="#E96D6B" p-id="3073"></path><path d="M527.2 894.9c-11.8 0-23.7-0.3-35.6-0.8l1.7-40c66.5 2.8 132.6-2.7 186-15.6 59.6-14.4 100.3-37.1 117.7-65.5 3.6-5.9 8.2-26-27.4-83.9-25.9-42-62.8-87.9-95.4-128.4-19.1-23.7-35.6-44.2-47.3-60.7-13.5-19-24.9-37.4-15.9-53.3 13.7-24.3 99.6-187.8 100.5-189.4l35.4 18.6c-3.3 6.3-77.2 147.1-97.8 184.6 1.9 3.7 6.1 10.7 15.7 23.6 10.7 14.4 25.2 32.5 40.6 51.6 33.3 41.4 71.1 88.4 98.3 132.5 22.5 36.5 49.8 89.3 27.5 125.7-23.4 38.2-71.3 66.2-142.4 83.5-47.4 11.5-103.7 17.5-161.6 17.5z" fill="#E96D6B" p-id="3074"></path></svg>