<?xml version="1.0" standalone="no"?><!DOCTYPE svg PUBLIC "-//W3C//DTD SVG 1.1//EN" "http://www.w3.org/Graphics/SVG/1.1/DTD/svg11.dtd"><svg t="1593869609292" class="icon" viewBox="0 0 1024 1024" version="1.1" xmlns="http://www.w3.org/2000/svg" p-id="7618" xmlns:xlink="http://www.w3.org/1999/xlink" width="200" height="200"><defs><style type="text/css"></style></defs><path d="M789.333333 938.666667c-74.666667 0-149.333333-26.837333-149.333333-156.458667C640 652.629333 789.845333 469.333333 789.333333 469.333333c-0.426667 0 149.333333 183.296 149.333334 312.874667C938.666667 911.829333 864 938.666667 789.333333 938.666667z m1.578667-317.184l-1.578667-2.56-1.578666 2.602666c-20.650667 34.261333-37.162667 67.114667-48.170667 96.768-9.514667 25.685333-14.250667 47.573333-14.250667 63.914667 0 61.184 12.16 71.125333 64 71.125333s64-9.941333 64-71.125333c0-16.341333-4.736-38.229333-14.250666-63.957333-10.965333-29.653333-27.52-62.506667-48.213334-96.768zM85.333333 549.248L292.778667 85.333333h315.904l-157.952 297.216a24.234667 24.234667 0 0 0 1.066666 24.832c3.413333 5.333333 80.341333 9.386667 230.869334 12.16L314.112 896l46.336-317.866667a25.002667 25.002667 0 0 0-6.314667-20.181333 26.666667 26.666667 0 0 0-19.754666-8.704H85.333333z" p-id="7619"></path></svg>